<svg viewBox="0 0 107.75 13.14" xmlns="http://www.w3.org/2000/svg"><path d="m0 12.05v-11.59h.93l5.3 7.06c.77 1 1.44 1.93 2.17 2.94 0-1.12 0-2.31 0-3.48v-6.52h.94v11.59h-.9l-5.3-7.05c-.77-1-1.44-1.95-2.14-3v3.47 6.52z"/><path d="m12.2.46h6.41v.9h-5.44v4.22h4.83v.9h-4.83v4.67h5.59v.9h-6.56z"/><path d="m20.46 6.54v-6.08h1v6c0 1.75.19 2.92.8 3.7a3.27 3.27 0 0 0 2.74 1.15 3.17 3.17 0 0 0 2.87-1.31 6.46 6.46 0 0 0 .62-3.46v-6h1v6a7.15 7.15 0 0 1 -.82 4.09 4.15 4.15 0 0 1 -3.68 1.68 4.15 4.15 0 0 1 -3.47-1.45c-.85-1.1-1.06-2.46-1.06-4.32z"/><path d="m37.1 5.26a.49.49 0 0 0 .27 0 1.22 1.22 0 0 1 .27 0 .07.07 0 0 0 .07-.06.76.76 0 0 0 0-.11.08.08 0 0 0 .07 0s0 0 0 0a2.29 2.29 0 0 0 .22-.31 1 1 0 0 1 .16-.22l.17-.06h.17s0 0 0 0 .07-.12.13-.08a.14.14 0 0 0 .15 0 .19.19 0 0 0 .22.08h.18s.06 0 .07 0 .06 0 .12 0h.06a.08.08 0 0 0 .07 0s0 0 0 0a.18.18 0 0 0 .07 0 .12.12 0 0 0 .09 0 .23.23 0 0 0 .11.11l.16.09q0 .12.06.21a1.32 1.32 0 0 1 0 .23.05.05 0 0 0 .05 0 .13.13 0 0 0 0 .07s0 0-.05.06a.49.49 0 0 1 0 .2.81.81 0 0 0 0 .19.51.51 0 0 0 -.09.18.58.58 0 0 1 0 .17 4.94 4.94 0 0 1 -.2.58 4.61 4.61 0 0 0 -.2.55.25.25 0 0 0 -.07.17.22.22 0 0 1 -.09.17s0 0 0 0a.09.09 0 0 1 -.06 0 1 1 0 0 1 -.18.34l-.23.3a.08.08 0 0 1 0 .07.1.1 0 0 0 0 0 .23.23 0 0 0 -.14 0h-.13a.44.44 0 0 1 -.2 0 .85.85 0 0 1 -.4.35.18.18 0 0 0 -.11-.1.16.16 0 0 1 -.11-.1.7.7 0 0 0 -.15-.2.45.45 0 0 1 -.13-.22.15.15 0 0 1 -.11-.16.16.16 0 0 1 0-.06v-.1a.74.74 0 0 0 -.13.08.33.33 0 0 1 -.14 0 .39.39 0 0 1 -.17.09l-1 .67a5 5 0 0 0 -1 .76l-.18.17a1.93 1.93 0 0 1 -.21.17.83.83 0 0 1 -.07.13.25.25 0 0 1 -.12.11 3.17 3.17 0 0 1 -.33.46 2.45 2.45 0 0 0 -.31.43s0 0 .06 0 .07 0 .08-.06h.18a.39.39 0 0 0 .14 0h.37a1.64 1.64 0 0 0 .35-.08 1.31 1.31 0 0 0 .44-.07 2.77 2.77 0 0 1 .41-.12h.07c.23-.06.46-.12.7-.2a6.61 6.61 0 0 0 .67-.24.29.29 0 0 0 .19 0 .19.19 0 0 1 .15 0s0 0 0 0a.22.22 0 0 0 .14 0h.11a2.35 2.35 0 0 1 .37-.14 2.39 2.39 0 0 0 .37-.15l.23-.06.23-.05.07-.07s0 0 .08 0l.17-.07a.11.11 0 0 1 .15.06.37.37 0 0 1 .12-.07l.15-.06a.24.24 0 0 0 .1.14.13.13 0 0 1 .07.13l-.2.09a.9.9 0 0 1 -.23.07.07.07 0 0 1 0 0 .11.11 0 0 0 0 .05.23.23 0 0 0 .22-.05.15.15 0 0 1 .18 0 .31.31 0 0 1 -.13.06.37.37 0 0 0 -.14.07s0 0 0 0h-.09a.05.05 0 0 1 0 0s0 0 0 0a.36.36 0 0 0 -.21.11 1.07 1.07 0 0 1 -.21.13h-.14a.21.21 0 0 0 -.12.07 1.19 1.19 0 0 0 -.44.15l-.37.19h.06s0 0 0 0a.12.12 0 0 0 .13 0 .24.24 0 0 1 .14-.05c0 .08 0 .12-.09.13s-.11 0-.12.06a.12.12 0 0 0 -.09 0 .12.12 0 0 1 -.1 0l-.07.05h-.06l-.17.13-.16.1h-.08s0 0-.05.05a1.58 1.58 0 0 0 -.26.13 1.41 1.41 0 0 1 -.24.13l-.53.24a1.3 1.3 0 0 1 -.38.22l-.42.18v.05a1.12 1.12 0 0 0 -.36.09 1.69 1.69 0 0 1 -.4.12h-.21a1.35 1.35 0 0 0 -.33 0l-.33.07h-.09a.1.1 0 0 1 -.08-.06h-.25a.27.27 0 0 1 -.2-.07.21.21 0 0 1 -.26 0 .38.38 0 0 0 -.24-.11s0 0 0 0a.31.31 0 0 1 -.32-.11.66.66 0 0 0 -.24-.23 3.67 3.67 0 0 1 -.26-.48 1.43 1.43 0 0 1 -.11-.56.27.27 0 0 1 0-.08.49.49 0 0 0 0-.32.26.26 0 0 1 -.05-.18.14.14 0 0 1 -.05-.1c0-.09.09-.17.13-.25l.12-.26s0-.06.05-.05 0-.05 0-.06a0 0 0 0 0 0 0 .48.48 0 0 0 .11-.15.94.94 0 0 1 .11-.17l.07-.05a.09.09 0 0 0 .06 0c.05-.07.11-.13.17-.2l.17-.19a.11.11 0 0 0 0 0s0 0 0 0h.07.06a.73.73 0 0 1 .16-.21l.28-.25.3-.25.25-.16a1.28 1.28 0 0 0 .23-.19h.06.07a3.75 3.75 0 0 1 .78-.88 4.16 4.16 0 0 0 .71-.47.55.55 0 0 0 .29-.17.64.64 0 0 1 .25-.18s0 0 0 0h.06a1.36 1.36 0 0 1 .39-.17.64.64 0 0 0 .4-.33z"/><path d="m41 8 .1-.1.12-.15a.85.85 0 0 1 .1-.14s0-.06.06-.06c.13-.18.27-.35.4-.5a3.92 3.92 0 0 0 .39-.5 1.19 1.19 0 0 0 .32-.55 1.54 1.54 0 0 1 .25-.42.05.05 0 0 0 0 0v-.12s0 0 .09 0a.7.7 0 0 1 .47-.28 2 2 0 0 0 .56-.18s0 0 0 .06a1.61 1.61 0 0 1 .51.09 1.44 1.44 0 0 1 .43.22s0 0 0 0a.92.92 0 0 0 .29.17 1 1 0 0 0 .27.09h.11a.83.83 0 0 1 .2.08.94.94 0 0 1 .24.14.19.19 0 0 0 .2.11h.06s0 .11.14.2l.29.28a5.35 5.35 0 0 0 .43.32 3 3 0 0 1 .52.61 1.34 1.34 0 0 1 .22.75.41.41 0 0 1 0 .12.23.23 0 0 0 0 .11v.13a1.28 1.28 0 0 1 -.19.71 2.39 2.39 0 0 1 -.42.52.19.19 0 0 1 -.12.14.2.2 0 0 0 -.12.13s-.11 0-.22.16-.23.2-.34.32l-.31.31-.1.11a1.24 1.24 0 0 1 -.2.21l-.33.22a3.61 3.61 0 0 1 -.39.22 3.29 3.29 0 0 1 -.39.17 7.39 7.39 0 0 0 -.71.4 1.16 1.16 0 0 1 -.61.24h-.1v.05a.07.07 0 0 0 0 0 1.81 1.81 0 0 1 -.67.12 1.86 1.86 0 0 1 -.42-.05.62.62 0 0 1 -.3-.16h-.13a.47.47 0 0 1 -.28-.09 1.34 1.34 0 0 1 -.21-.2c-.07-.07-.13-.15-.2-.23a.91.91 0 0 0 -.24-.2l-.12-.3a1 1 0 0 0 -.16-.29v-.07a1.11 1.11 0 0 0 0-.17.86.86 0 0 1 0-.16v-.11a.29.29 0 0 0 0-.12v-.6a1 1 0 0 0 0-.17c0-.06 0-.11 0-.17a.65.65 0 0 1 0-.22v-.06a1.26 1.26 0 0 1 .16-.57c.1-.2.19-.38.28-.54v-.03a0 0 0 0 1 0 0zm2.11 1.91.36-.16a.9.9 0 0 0 .31-.21.13.13 0 0 0 .12-.07.11.11 0 0 1 .1-.11.67.67 0 0 1 .21-.19l.4-.27.42-.29a2 2 0 0 0 .28-.24l.11-.08.18-.16a1.37 1.37 0 0 0 .17-.23.47.47 0 0 0 .09-.28.39.39 0 0 0 -.09-.26l-.21-.21-.21-.15a.68.68 0 0 1 -.19-.19l-.6.66c-.2.22-.44.5-.71.83s-.39.49-.57.74a4.64 4.64 0 0 0 -.44.72s.08 0 .09 0 .07.07.13.1z"/><path d="m57.05 4.91s0 0 0 0a.66.66 0 0 1 0 .13l.09.18a.65.65 0 0 1 0 .2.28.28 0 0 1 0 .13.12.12 0 0 0 0 .11.11.11 0 0 0 0 .06s0 0 0 0a1.49 1.49 0 0 1 0 .17v.18s-.05.12-.07.2 0 .16-.08.25a.74.74 0 0 1 -.08.35 3.73 3.73 0 0 1 -.16.35.74.74 0 0 0 0 .14.68.68 0 0 1 0 .14l-.06.1a.2.2 0 0 0 -.05.09v.13a.12.12 0 0 1 -.07.11.31.31 0 0 1 -.07.22.61.61 0 0 0 -.12.21s0 0 0 0a.17.17 0 0 0 0 .1.24.24 0 0 1 0 .08.28.28 0 0 1 -.08.11.23.23 0 0 0 -.06.13 1.05 1.05 0 0 1 -.08.25 1.15 1.15 0 0 0 -.08.26.05.05 0 0 0 0 0s0 0 0 0a.19.19 0 0 1 0 .14.31.31 0 0 0 -.05.1.19.19 0 0 1 0 .15.53.53 0 0 0 -.06.13.5.5 0 0 0 0 .19.55.55 0 0 1 0 .22.75.75 0 0 1 0 .16.16.16 0 0 0 0 .15.13.13 0 0 1 0 .06v.2a.23.23 0 0 1 -.08.17.35.35 0 0 0 0-.12v-.12l-.09.24a.67.67 0 0 0 0 .25.14.14 0 0 0 0 .06.05.05 0 0 1 0 0 .64.64 0 0 1 0 .42.87.87 0 0 0 -.06.43.35.35 0 0 0 .06.14.21.21 0 0 1 0 .18.15.15 0 0 0 -.07.11 1.57 1.57 0 0 0 0 .16.08.08 0 0 0 -.08 0 .13.13 0 0 1 -.09 0 .56.56 0 0 1 -.17-.21.4.4 0 0 0 -.17-.19.22.22 0 0 0 -.08-.16.28.28 0 0 1 -.1-.13.06.06 0 0 1 0-.06.11.11 0 0 0 0-.05.19.19 0 0 0 -.07-.08l-.06-.07a1.07 1.07 0 0 1 -.09-.27 2.34 2.34 0 0 0 -.07-.32s0 0 0 0c0-.12 0-.27-.09-.44a1 1 0 0 1 0-.46.22.22 0 0 0 0-.08 3.09 3.09 0 0 0 .06-.76 2.87 2.87 0 0 1 -.49-.43l.06-.12a1.12 1.12 0 0 1 .05-.13v-.07a.17.17 0 0 1 0-.1 2 2 0 0 1 0-.21 1.24 1.24 0 0 0 0-.16 2.38 2.38 0 0 0 -.31.26l-.33.3-.12.14a.69.69 0 0 1 -.13.11.35.35 0 0 1 -.12.1.35.35 0 0 0 -.12.1c-.15.15-.31.29-.47.43s-.33.28-.48.43a.53.53 0 0 0 -.14.12.26.26 0 0 1 -.16.09l-.17.09-.17.12a.09.09 0 0 0 -.11-.06.1.1 0 0 1 -.11 0l-.2.06q-.12 0-.12-.06a.24.24 0 0 1 -.26 0 .74.74 0 0 0 -.2-.16.7.7 0 0 1 -.05-.18.78.78 0 0 1 0-.16s0 0 0 0a.24.24 0 0 1 0-.15v-.19a1.5 1.5 0 0 0 0-.2.3.3 0 0 0 0-.18 3.41 3.41 0 0 1 -.37.39 4.35 4.35 0 0 0 -.36.38l-.06.08a.27.27 0 0 1 -.07.08l-.07.06-.06.05q-.18.16-.36.36a2.15 2.15 0 0 1 -.41.32h-.06a.45.45 0 0 1 -.16.14s0 0 0 0 0 0 0 .06a2.65 2.65 0 0 0 -.25.3l-.26.34-.06.05h-.05l-.14.24c0 .09-.12.1-.23 0a0 0 0 0 0 -.06 0 0 0 0 0 1 -.07 0l.15-.08.16-.08a.14.14 0 0 0 -.16-.05.71.71 0 0 0 -.16 0 .08.08 0 0 0 0-.07 0 0 0 0 1 0-.06.6.6 0 0 1 -.22-.12 1.72 1.72 0 0 1 -.19-.17s0 0 0 0 0 0 0-.05a.11.11 0 0 0 0-.1.17.17 0 0 1 -.1-.15q0-.12-.06-.21v-.07s0 0-.05 0a.33.33 0 0 0 0 .17.3.3 0 0 1 0 .16.11.11 0 0 1 0-.09v-.1s0 0 0 0a.76.76 0 0 1 0-.4 3.77 3.77 0 0 0 .06-.39h.06a1.44 1.44 0 0 1 .32-.48q.2-.19.39-.42s0-.07 0-.07 0 0 0-.07a.31.31 0 0 0 .12-.08.25.25 0 0 1 -.04-.09.54.54 0 0 0 .11-.18 1.37 1.37 0 0 0 .14-.26v-.26a.45.45 0 0 1 .12-.2s0 0 .07-.07 0 0 .07 0a2 2 0 0 0 .18-.21l.17-.22a.05.05 0 0 1 0 0s0 0 0-.06v-.07a.18.18 0 0 0 .08-.06v-.07l.31-.14a.36.36 0 0 0 .12-.13l.11-.13a.23.23 0 0 1 .07-.07.18.18 0 0 0 .07 0 3.85 3.85 0 0 1 .35-.35l.36-.31a1 1 0 0 0 .2-.21 1.28 1.28 0 0 1 .22-.17s0 0 .06 0 0 0 .06 0a.34.34 0 0 1 .16-.06l.22-.17a1 1 0 0 0 .18-.08.3.3 0 0 1 .16 0 .1.1 0 0 0 .05 0h.06.15a.15.15 0 0 1 .12.07.67.67 0 0 1 .47.24 2.31 2.31 0 0 0 .36.34c0 .1 0 .21.07.31a.53.53 0 0 1 0 .28.09.09 0 0 1 0 .05 2.17 2.17 0 0 0 0 .25 1.41 1.41 0 0 0 0 .28 4.43 4.43 0 0 0 .57-.58 2.43 2.43 0 0 1 .61-.53.08.08 0 0 1 0-.05s0 0 0-.06l.2-.25a.55.55 0 0 0 .18-.16.49.49 0 0 0 .2-.11.8.8 0 0 1 .19-.13l.18-.17c.06 0 .11-.12.17-.18s.41-.3.59-.45a1.46 1.46 0 0 1 .67-.29h.05.18s0 0 0 0l.19.11a.32.32 0 0 0 .22 0 .27.27 0 0 1 .07.08s0 0 .06 0a.07.07 0 0 0 0 .08.14.14 0 0 1 .1.26z"/><path d="m66.35 4.91s0 0 0 0a.66.66 0 0 1 0 .13.51.51 0 0 1 .09.18.45.45 0 0 1 0 .2.28.28 0 0 1 0 .13.15.15 0 0 0 0 .11.07.07 0 0 0 0 .06s0 0 0 0a.67.67 0 0 1 0 .17v.18l-.07.2a1.82 1.82 0 0 0 -.07.25.89.89 0 0 1 -.08.35c-.05.12-.11.24-.16.35a.37.37 0 0 0 0 .14.7.7 0 0 1 0 .14l-.06.1a.41.41 0 0 0 0 .09.59.59 0 0 0 0 .13.14.14 0 0 1 -.07.11.31.31 0 0 1 -.08.22 1.3 1.3 0 0 0 -.12.21s0 0 0 0a.18.18 0 0 0 0 .1.22.22 0 0 1 0 .08.44.44 0 0 1 -.08.11.32.32 0 0 0 -.07.13.73.73 0 0 1 -.08.25 2.08 2.08 0 0 0 -.08.26.05.05 0 0 0 0 0s0 0 0 0 0 .11 0 .14a.3.3 0 0 0 0 .1.19.19 0 0 1 0 .15.5.5 0 0 0 -.07.13.37.37 0 0 0 0 .19.56.56 0 0 1 0 .22.75.75 0 0 1 0 .16.16.16 0 0 0 0 .15.11.11 0 0 0 0 0 .14.14 0 0 1 0 .06v.2a.27.27 0 0 1 -.08.17.68.68 0 0 0 0-.12v-.12a2.25 2.25 0 0 0 -.08.24.51.51 0 0 0 0 .25.13.13 0 0 0 0 .06s0 0 0 0a.63.63 0 0 1 0 .42.79.79 0 0 0 -.07.43.27.27 0 0 0 .07.14.21.21 0 0 1 0 .18.19.19 0 0 0 -.07.11 1.37 1.37 0 0 1 0 .16s-.06 0-.08 0a.15.15 0 0 1 -.1 0 .68.68 0 0 1 -.17-.21.32.32 0 0 0 -.17-.19.19.19 0 0 0 -.08-.16.22.22 0 0 1 -.09-.13.13.13 0 0 1 0-.06s0 0 0-.05a.28.28 0 0 0 -.06-.08l-.07-.07a.77.77 0 0 1 -.08-.27 2.49 2.49 0 0 0 -.08-.32c0-.12 0-.27-.09-.44a1.48 1.48 0 0 1 0-.46.22.22 0 0 0 0-.08 2.66 2.66 0 0 0 .07-.76 2.53 2.53 0 0 1 -.58-.43l.05-.12.06-.13a.34.34 0 0 0 0-.09.31.31 0 0 1 0-.1.87.87 0 0 1 0-.21c0-.06 0-.11 0-.16a1.86 1.86 0 0 0 -.31.26l-.33.3-.01.16a.36.36 0 0 1 -.13.11.35.35 0 0 1 -.12.1l-.12.1c-.15.15-.3.29-.47.43s-.32.28-.47.43a.79.79 0 0 0 -.15.12.24.24 0 0 1 -.16.09l-.16.09a1 1 0 0 0 -.17.12.09.09 0 0 0 -.11-.06.12.12 0 0 1 -.12 0l-.2.06q-.12 0-.12-.06a.22.22 0 0 1 -.25 0 .78.78 0 0 0 -.21-.16 1.67 1.67 0 0 1 -.04-.28.81.81 0 0 1 0-.16s0 0 0 0a.19.19 0 0 1 0-.15 1.37 1.37 0 0 1 0-.19v-.2a.39.39 0 0 0 0-.18 4.59 4.59 0 0 1 -.37.39 4.44 4.44 0 0 0 -.37.38l-.06.08a.18.18 0 0 1 -.07.08l-.06.06-.07.05-.36.36a2.08 2.08 0 0 1 -.4.32h-.07a.38.38 0 0 1 -.16.14s0 0 0 0 0 0 0 .06a2.67 2.67 0 0 0 -.26.3l-.26.34-.05.05a.13.13 0 0 0 -.06 0 2.6 2.6 0 0 0 -.13.24q-.07.13-.24 0a0 0 0 0 0 -.06 0 0 0 0 0 1 -.06 0l.11.03a.55.55 0 0 0 .15-.08.13.13 0 0 0 -.16-.05h-.16s0 0 0 0a.09.09 0 0 0 0-.07.06.06 0 0 1 0-.06.64.64 0 0 1 -.23-.12l-.19-.17s0 0 0 0 0 0 0-.05a.16.16 0 0 0 0-.1c-.06 0-.09-.07-.11-.15a1.08 1.08 0 0 0 0-.21v-.07s0 0 0 0a.25.25 0 0 0 0 .17.45.45 0 0 1 0 .16.09.09 0 0 1 -.05-.09v-.11s0 0 0 0a.76.76 0 0 1 0-.4c0-.15 0-.28.05-.39h.07a1.3 1.3 0 0 1 .32-.48l.38-.42s0-.07 0-.07 0 0 0-.07l.12-.08a.18.18 0 0 1 -.13-.09.52.52 0 0 0 .1-.18 1.37 1.37 0 0 0 .07-.24 2.5 2.5 0 0 0 .07-.26.43.43 0 0 1 .11-.2.08.08 0 0 0 .1-.12s0 0 .07 0a.91.91 0 0 0 .18-.21 1.74 1.74 0 0 1 .18-.22s0 0 0 0v-.06a.14.14 0 0 1 0-.07.18.18 0 0 0 .08-.06.6.6 0 0 1 .13-.13.71.71 0 0 0 .12-.13l.1-.13.07-.07h.08a3.73 3.73 0 0 1 .48-.45l.36-.31a.79.79 0 0 0 .22-.16 1.37 1.37 0 0 1 .23-.17.12.12 0 0 0 0 0h.06a.38.38 0 0 1 .16-.06l.18-.05.17-.08a.37.37 0 0 1 .16 0h.06.05.16a.15.15 0 0 1 .12.07.69.69 0 0 1 .47.24 1.67 1.67 0 0 0 .36.34l.06.31a.53.53 0 0 1 0 .28.09.09 0 0 1 0 .05 1.09 1.09 0 0 0 0 .25.9.9 0 0 0 0 .28 4 4 0 0 0 .58-.58 2.27 2.27 0 0 1 .61-.53.07.07 0 0 1 0-.05.08.08 0 0 0 0-.06 1.4 1.4 0 0 1 .18-.13.7.7 0 0 0 .19-.16.56.56 0 0 0 .2-.11 1 1 0 0 1 .18-.13 1.45 1.45 0 0 0 .24-.41 1.45 1.45 0 0 0 .17-.18c.22-.15.41-.3.59-.45a1.5 1.5 0 0 1 .68-.29s0 0 0 0h.17s0 0 0 0a1.18 1.18 0 0 1 .19.11.35.35 0 0 0 .23 0l.06.08a.1.1 0 0 0 .07 0 .07.07 0 0 0 0 .08.17.17 0 0 1 .19.26z"/><path d="m71.06 12.26v.08a.3.3 0 0 0 -.07-.11.14.14 0 0 0 -.11 0s0 0 0 0a.09.09 0 0 1 -.1-.06.12.12 0 0 0 -.08-.09 0 0 0 0 1 0 0 .33.33 0 0 1 -.19-.08.52.52 0 0 1 -.1-.18 1.43 1.43 0 0 1 -.08-.22.76.76 0 0 0 -.11-.22s0 0 0-.06a.06.06 0 0 1 0-.07.63.63 0 0 1 -.09-.31.62.62 0 0 0 -.09-.34s0 0 0 0-.06 0-.11 0a.5.5 0 0 0 -.1.13 1 1 0 0 0 -.37.35.05.05 0 0 1 0 0 .05.05 0 0 0 0 0 .24.24 0 0 0 -.14.1.27.27 0 0 1 -.15.09.62.62 0 0 1 -.2.15 1.08 1.08 0 0 0 -.2.16.49.49 0 0 0 -.12.13.23.23 0 0 1 -.12.12l-.22.08a.55.55 0 0 0 -.16.15.37.37 0 0 1 -.19.14l-.08.07a.41.41 0 0 1 -.11.07h-.08l-.14.08a.28.28 0 0 1 -.13 0h-.18l-.16-.07a.22.22 0 0 1 -.14 0 .22.22 0 0 0 -.16 0 .18.18 0 0 0 0-.1l-.09-.07-.09-.08a.18.18 0 0 1 0-.13s0 0 0 0 0 0-.07 0 0 0 0 0a.05.05 0 0 0 0 0l-.2-.27-.21-.26a.88.88 0 0 1 0-.29 1.36 1.36 0 0 1 0-.29s0 0 0 0a2.33 2.33 0 0 1 .19-.88c.11-.25.22-.49.34-.74a.13.13 0 0 1 .05-.11.13.13 0 0 0 0-.11 1.88 1.88 0 0 1 .23-.56 4.17 4.17 0 0 0 .07-.46c.1-.2.22-.43.33-.67a.16.16 0 0 0 0-.11.61.61 0 0 1 0-.12.38.38 0 0 1 .17-.1.24.24 0 0 0 0-.18.55.55 0 0 0 .16-.32.86.86 0 0 1 .16-.35q0-.09 0-.12l.18-.14s0 0 0 0a.31.31 0 0 1 .16 0 .19.19 0 0 0 .15-.07s0 0 0 0 .06 0 .08 0l.54.16a.85.85 0 0 1 .44.32h.06a.37.37 0 0 0 0 .12.22.22 0 0 1 0 .1v.22a3.25 3.25 0 0 1 0 .33.62.62 0 0 1 -.09.27s0 0 0 0v.1a.59.59 0 0 0 0 .08v.09a3.73 3.73 0 0 1 -.45.75.64.64 0 0 1 -.1.22.63.63 0 0 0 -.09.22.24.24 0 0 0 -.06.08.76.76 0 0 0 0 .11.2.2 0 0 1 -.07.1.47.47 0 0 0 -.09.12.08.08 0 0 0 0 0 .08.08 0 0 1 0 0v.07s0 0 0 0c.22-.19.44-.37.65-.57a3.27 3.27 0 0 0 .56-.67s0 0 0 0l.62-.72.56-.32a.38.38 0 0 1 .13-.25.44.44 0 0 0 .17-.21l.12-.1c0-.05.06-.09 0-.12l.13-.12a.18.18 0 0 0 .07-.15.23.23 0 0 0 .18-.15.28.28 0 0 1 .14-.16.31.31 0 0 0 0-.12.22.22 0 0 1 0-.08s0 0 0 0a.06.06 0 0 0 0-.06v-.05s0 0 0-.06 0 0 0 0v-.14a.15.15 0 0 0 .17 0 .17.17 0 0 1 .18 0 .07.07 0 0 1 0 .07h.14a.16.16 0 0 1 0 .08s0 0 0 0a.09.09 0 0 0 0 .06.1.1 0 0 1 -.07.08.09.09 0 0 0 .11 0 .11.11 0 0 1 .13 0 .69.69 0 0 1 .18.16.18.18 0 0 0 .21.07.22.22 0 0 0 0 .08s0 0 0 0a.14.14 0 0 1 .08.15.38.38 0 0 0 0 .19.38.38 0 0 1 -.06.18.14.14 0 0 0 0 .17 2 2 0 0 0 -.1.23.77.77 0 0 1 -.11.19c-.09.24-.19.48-.3.71a5.34 5.34 0 0 0 -.31.73s0 0 0 0a.61.61 0 0 1 -.09.23.48.48 0 0 0 -.08.22s0 0 0 0 0 .09-.06.16a.28.28 0 0 0 -.07.19 3.77 3.77 0 0 0 -.19.77c0 .26-.1.55-.16.86a2.18 2.18 0 0 1 0 .52 1.48 1.48 0 0 0 0 .52 0 0 0 0 1 0 0 .12.12 0 0 0 0 .13.17.17 0 0 1 0 .17h-.08a.06.06 0 0 0 -.06 0c-.07 0-.11 0-.13.06l-.1-.06a.11.11 0 0 0 -.08 0s0 0 0 0a.09.09 0 0 1 -.06-.06.16.16 0 0 0 .16.17zm-2.72-2.61s0 0-.07 0v.06s0 0 0 0a0 0 0 0 1 .07-.06z"/><path d="m72.82 10.53c.09-.29.17-.57.26-.85s.16-.57.24-.88a1 1 0 0 0 .07-.23.5.5 0 0 1 .1-.22s0-.06 0-.09a.12.12 0 0 0 0-.08.78.78 0 0 0 .19-.33c0-.14.07-.28.1-.43a.91.91 0 0 0 .22-.34l.12-.41a.85.85 0 0 0 .11-.26 1 1 0 0 1 .1-.28.25.25 0 0 0 0-.1.19.19 0 0 1 0-.09 1.77 1.77 0 0 1 .19-.33.6.6 0 0 0 .12-.38s.06 0 .08-.09a.28.28 0 0 1 0-.12 0 0 0 0 1 0 0v-.02s0 0 0 0h.12a.17.17 0 0 0 .13 0 .1.1 0 0 0 .1.07.92.92 0 0 1 .37 0 .5.5 0 0 1 .29.2 0 0 0 0 0 0 0 0 0 0 0 1 0 0 .07.07 0 0 0 0 0 .18.18 0 0 0 .06.13.37.37 0 0 1 .08.14v.25a2.54 2.54 0 0 0 0 .29.09.09 0 0 0 0 .07.22.22 0 0 1 0 .16.17.17 0 0 0 0 .13 1.89 1.89 0 0 1 0 .3q0 .18 0 .24c0 .11-.08.2-.1.28a2 2 0 0 0 -.07.26.67.67 0 0 0 .21-.23 1.42 1.42 0 0 1 .45-.29l.1-.09a.26.26 0 0 0 .1-.13 1.24 1.24 0 0 0 .18-.22 1.75 1.75 0 0 1 .16-.2.05.05 0 0 1 0 0s0 0 0 0a1.35 1.35 0 0 0 .31-.36.66.66 0 0 1 .28-.29s0 0 0-.06a.55.55 0 0 0 .2-.15l.17-.2a1.2 1.2 0 0 1 .18-.2.45.45 0 0 1 .21-.12.41.41 0 0 1 .17 0h.19a.29.29 0 0 0 .24.06.18.18 0 0 1 .2.1s0 0 0 0a.57.57 0 0 1 .18.12 1 1 0 0 0 .19.16.21.21 0 0 1 .16 0 .67.67 0 0 0 .21.28.58.58 0 0 1 .17.33.1.1 0 0 1 0 .09s0 .06 0 .07 0 0 0 0a.93.93 0 0 1 .07.42 2.37 2.37 0 0 1 -.08.42.12.12 0 0 0 0 0s0 0 0 .07h.15a2.33 2.33 0 0 1 -.11.54 2.25 2.25 0 0 0 -.11.52.23.23 0 0 0 0 .11.39.39 0 0 1 0 .13s0 0 0 0a.41.41 0 0 0 -.08.25.94.94 0 0 1 -.08.31q-.06.33-.15.66c-.07.22-.14.44-.19.67v.19a.63.63 0 0 1 0 .19.58.58 0 0 1 0 .14.39.39 0 0 0 0 .13.49.49 0 0 0 0 .12.08.08 0 0 1 0 .07v.06a.88.88 0 0 1 -.07.12s0 .06 0 .07 0 0 0 .07-.05 0-.06-.06a.12.12 0 0 0 0 .11v.11s-.06.06-.08 0-.05-.05-.1 0a.17.17 0 0 0 -.06.12q0 .09-.06.09a.59.59 0 0 1 -.08.31.89.89 0 0 0 -.08.34.57.57 0 0 1 -.27 0 .23.23 0 0 0 -.26 0l-.22-.56a3.12 3.12 0 0 1 -.14-.64 2.38 2.38 0 0 1 0-.37c0-.14 0-.28.07-.43s0-.28.06-.43a2.93 2.93 0 0 0 0-.41 1.62 1.62 0 0 1 0-.46 2.94 2.94 0 0 0 0-.51h-.15c-.07 0-.11 0-.12 0l-.19.2a1.18 1.18 0 0 0 -.17.2s0 .06-.06.06l-.09.1-.1.06-.36.49a4.94 4.94 0 0 1 -.39.44.43.43 0 0 0 -.18.15 2.5 2.5 0 0 0 -.16.24l-.15.26a.56.56 0 0 1 -.17.2l-.13.1a.38.38 0 0 0 -.09.15s0 0 0 0a1.06 1.06 0 0 1 -.35.35 1.53 1.53 0 0 0 -.36.36h-.08s0 .06-.06.14a.37.37 0 0 1 -.06.16c-.06 0-.09 0-.11 0s0 0-.1 0a.22.22 0 0 0 -.18 0 .22.22 0 0 1 -.16 0c-.05 0-.09 0-.1.07a.25.25 0 0 0 0 .13l-.15.05s-.08.07-.1.15-.13-.06-.15-.18c0 .06.07.06.07 0a.07.07 0 0 0 0-.06c-.05 0-.07.07-.05.15s0 .14-.06.17a.47.47 0 0 1 0-.19.37.37 0 0 0 -.17.11q-.11 0-.12-.06a.11.11 0 0 0 -.09-.05.39.39 0 0 1 0-.17c0-.07 0-.14 0-.22a1.93 1.93 0 0 0 0-.24.75.75 0 0 0 0-.22c0-.2.07-.43.1-.68a4.38 4.38 0 0 1 .13-.65z"/><path d="m80.82 12a.12.12 0 0 0 0 .1c-.06 0-.1 0-.11.05a.16.16 0 0 1 0 .06.44.44 0 0 1 -.07.19.42.42 0 0 1 -.08.13s-.05 0-.06 0a.73.73 0 0 1 0-.26s0 0-.05 0 0 .08 0 .1a.72.72 0 0 1 0 .29s-.06.05-.08 0a.26.26 0 0 1 -.06-.15.45.45 0 0 1 .05-.24s0 0 0 0a.75.75 0 0 1 -.18.19c-.08.07-.11.12-.09.14s0 0 0 0h-.06a.63.63 0 0 1 0 .2s0 0 0 0l-.06-.08s0 0-.05.07a.25.25 0 0 1 0-.07s0 0-.07 0 .05.06 0 .12a.38.38 0 0 0 0-.24s0-.09.1-.16a.07.07 0 0 1 0-.08.24.24 0 0 1 0-.08.47.47 0 0 1 0-.17 1 1 0 0 0 .05-.18.75.75 0 0 1 .1-.35 2.87 2.87 0 0 1 0-.31 1.17 1.17 0 0 1 .11-.28c-.06 0 0-.06 0-.08s0 0 0-.06 0 0 0 0a.15.15 0 0 0 .08-.15 0 0 0 0 0 0 0 .09.09 0 0 0 0-.06c.09 0 .1-.09 0-.16a.11.11 0 0 0 .09-.1.09.09 0 0 1 0-.09 1.86 1.86 0 0 1 .09-.24.72.72 0 0 0 0-.28.05.05 0 0 0 0-.05s0 0 0-.07a.26.26 0 0 1 .07-.24c.06-.08.07-.14 0-.2l.08-.21c-.06 0-.07 0 0-.06s.06-.05.06-.08a.15.15 0 0 0 0-.07.13.13 0 0 1 0-.06l.06-.07a.07.07 0 0 0 0-.08.14.14 0 0 1 0-.15.08.08 0 0 0 0-.11.22.22 0 0 1 0-.08s0 0 0-.06h-.05.06a.11.11 0 0 0 0-.08.17.17 0 0 1 0-.1.34.34 0 0 1 .25-.3s0 0 0 0a.45.45 0 0 0 .11-.24.63.63 0 0 1 .1-.28s0-.09 0-.13a.18.18 0 0 0 .07-.15v-.05a1.07 1.07 0 0 0 .09-.19 1.11 1.11 0 0 0 .07-.16s0 0 0 0a.27.27 0 0 0 .16-.13.27.27 0 0 1 .1-.11.27.27 0 0 0 .13 0 .41.41 0 0 1 .17-.26 1.43 1.43 0 0 1 .31 0 .49.49 0 0 0 .28-.09l.57-.06a4.11 4.11 0 0 1 .55 0 .08.08 0 0 1 .07 0h.12a.2.2 0 0 1 .11.06.09.09 0 0 0 .09 0 .3.3 0 0 1 .08.22.86.86 0 0 1 -.07.21l-.11.32a1.13 1.13 0 0 1 -.22.36l-.06.2a.35.35 0 0 1 -.15.19s0 0 0 0a1.2 1.2 0 0 0 -.2.39 1 1 0 0 1 -.22.39 2.92 2.92 0 0 0 -.18.39c0 .15-.11.31-.16.47l-.18.47a2.24 2.24 0 0 1 -.2.38s0 0 0 .05 0 0 0 .06l-.43.79a1.91 1.91 0 0 0 -.28.7c-.05 0-.09.05-.1.08s-.07.06-.14.08v-.06q-.21 0-.21.15a.78.78 0 0 1 0 .22s0 0 0 0 .06.06 0 .09a.12.12 0 0 1 -.06.06h-.07s0 0 0 .05-.06 0-.07 0 0-.06-.06-.05 0 0 0 0a.23.23 0 0 1 -.07-.07.11.11 0 0 0 -.12-.05zm-.26.12a.09.09 0 0 0 -.06 0s0 0 0 0a.08.08 0 0 0 .06-.02zm.27-.2s0 0 0 0a0 0 0 0 1 0 0c.04.08.04.02 0-.02zm.1 0-.06.06h.09zm1.74-8.4s0 0 0 0h.12a.09.09 0 0 0 .09 0h.1a.12.12 0 0 1 0-.07.27.27 0 0 0 .12 0 .62.62 0 0 1 .2-.12.46.46 0 0 1 .26 0 1.62 1.62 0 0 0 .33 0 .27.27 0 0 0 .14 0h.19a.35.35 0 0 0 .16.09.25.25 0 0 1 .16.1.19.19 0 0 0 0 .08.43.43 0 0 1 .22.2.43.43 0 0 0 .2.2v.32s-.06.22-.23.3a.1.1 0 0 0 -.07.07.49.49 0 0 0 -.3.08c-.27 0-.37.06-.32.19a.43.43 0 0 0 -.04.04.61.61 0 0 0 0 .1.39.39 0 0 0 -.15.06.5.5 0 0 1 -.19.07s0 0 0 0a3 3 0 0 1 -.78.07 2 2 0 0 1 -.61-.11h-.05a.06.06 0 0 0 -.07 0 0 0 0 0 1 -.06 0 .17.17 0 0 0 -.09-.19.1.1 0 0 1 0-.1.19.19 0 0 1 0-.08.19.19 0 0 0 0-.08.37.37 0 0 1 0-.23.76.76 0 0 1 .12-.24.16.16 0 0 0 0-.06.14.14 0 0 1 .05-.08 1.89 1.89 0 0 1 .2-.27l.21-.26h.08z"/><path d="m84.87 12.43s0 0 0 0a.24.24 0 0 1 -.18-.11.37.37 0 0 0 -.13-.15.65.65 0 0 0 -.08-.32s0 0 0 0a4.84 4.84 0 0 0 -.07-.54 1.9 1.9 0 0 1 0-.55.09.09 0 0 1 0 0 1.43 1.43 0 0 1 0-.51 4.3 4.3 0 0 0 .09-.47.67.67 0 0 0 .1-.24 1.24 1.24 0 0 0 0-.27 1.84 1.84 0 0 1 .13-.45c.06-.14.12-.27.17-.4s0 0 0 0 .11-.25.16-.38.09-.25.14-.37h-.13a.36.36 0 0 0 -.14 0 .31.31 0 0 0 -.22 0h-.23a.54.54 0 0 1 -.33-.07l-.34-.14s0 0 0 0 0 0-.07 0a.1.1 0 0 1 0 0c0-.07 0-.11 0-.13a.2.2 0 0 1 -.09-.11h-.1c0-.05 0-.08 0-.08h-.11s0 0 0 0a.07.07 0 0 0 -.09 0 .17.17 0 0 1 -.12 0s0 0 0 0a.09.09 0 0 0 -.09 0 .24.24 0 0 1 0-.17h.08a.09.09 0 0 0 0-.08s0 0 0-.09a.6.6 0 0 0 .19.06.13.13 0 0 0 .15-.1s.09 0 .12 0a.21.21 0 0 1 .12 0l.3-.06a1 1 0 0 0 .29-.09.75.75 0 0 0 .22 0l.2-.06.19-.07a.77.77 0 0 1 .22 0 .44.44 0 0 1 .27-.15 1.1 1.1 0 0 0 .29 0 3.89 3.89 0 0 0 .21-.51 3.64 3.64 0 0 1 .22-.49 0 0 0 0 1 0 0 .14.14 0 0 0 0-.06 2.71 2.71 0 0 0 .21-.37 1.71 1.71 0 0 1 .21-.4.3.3 0 0 0 0-.1.61.61 0 0 1 0-.12l.08-.09a.23.23 0 0 0 .29-.8.75.75 0 0 0 .08-.18 1.08 1.08 0 0 1 .09-.21s0 0 0 0a.11.11 0 0 1 0 0v-.06s0 0 0-.07a.3.3 0 0 0 0-.1.12.12 0 0 1 0-.09 1.46 1.46 0 0 1 .09-.16l.06-.16a.15.15 0 0 1 .07-.11.34.34 0 0 1 .29-.25.29.29 0 0 0 .07-.17.48.48 0 0 0 .09-.13.86.86 0 0 0 .1-.16 2.69 2.69 0 0 1 .24-.48.87.87 0 0 0 .1-.24.78.78 0 0 1 .12-.21.17.17 0 0 1 0-.1v-.06-.1a.62.62 0 0 1 .26-.17l.14-.09a.22.22 0 0 1 .12-.09s0 .06 0 .07 0 0 0 0h.08a.18.18 0 0 1 .08-.07.18.18 0 0 0 0-.07s0 0 .07 0a0 0 0 0 1 0 .07s0 0 0 0a.16.16 0 0 0 .12 0 .15.15 0 0 1 .1 0 .17.17 0 0 1 0 0s0 0 0-.06a.51.51 0 0 1 .23.14.32.32 0 0 0 .23.1.93.93 0 0 0 .16.18l.2.12a.32.32 0 0 0 .12.28.48.48 0 0 0 0 .18s0 .08 0 .14a.14.14 0 0 1 0 .06.19.19 0 0 1 0 .08c0 .16-.11.33-.16.5a1.07 1.07 0 0 1 -.24.43.51.51 0 0 1 -.05.22.71.71 0 0 1 -.12.18 1.09 1.09 0 0 0 -.13.17.45.45 0 0 0 .19.28c-.07.12-.14.24-.23.37a.2.2 0 0 1 0 .17.29.29 0 0 0 -.09.19h-.05a3.57 3.57 0 0 1 -.34.61 2.11 2.11 0 0 0 -.33.61l-.11.05a.43.43 0 0 0 0 .11 1.7 1.7 0 0 0 .38 0h.29.32.86 1s0 0 0 0a.06.06 0 0 0 0 .07.05.05 0 0 0 .05 0s0 0 0 0a.16.16 0 0 1 0 .18l-.14.12h.13s0 0 0 0h-.05a.25.25 0 0 1 -.19.19 1.07 1.07 0 0 0 -.27.07s0 0 0 0a.07.07 0 0 0 -.07 0s0 0-.08 0v.06s0 0 0 0a.13.13 0 0 0 .06 0 .08.08 0 0 1 .07 0s0 0 0 0a0 0 0 0 0 0 0h-.01s0 0 0 0a.05.05 0 0 1 0 0 1 1 0 0 1 -.19.08.35.35 0 0 0 -.15.12h-.21a.51.51 0 0 0 -.17.07.16.16 0 0 0 -.17 0 .54.54 0 0 1 -.2.1h-.11a1.45 1.45 0 0 0 -.31.11.85.85 0 0 1 -.35 0s0 0 0 0a0 0 0 0 1 0 0 2.16 2.16 0 0 0 -.72.09l-.75.63c-.06.12-.11.22-.16.3a.68.68 0 0 0 -.11.29 1.34 1.34 0 0 0 -.12.24 1.09 1.09 0 0 0 -.09.23l-.19.26a.8.8 0 0 0 -.12.34 1.12 1.12 0 0 0 -.26.48 4.6 4.6 0 0 1 -.19.52 1.48 1.48 0 0 1 -.07.31 2.39 2.39 0 0 1 -.11.32 4.6 4.6 0 0 1 -.16.58 3.3 3.3 0 0 0 -.13.57v.26s0 .17 0 .25a.08.08 0 0 1 0 .07s0 0 0 0a2.08 2.08 0 0 0 -.32.61h-.06s0 .05 0 .07a.08.08 0 0 1 0 .08s-.07 0-.08 0a.56.56 0 0 0 -.05-.08v.13h-.1a.08.08 0 0 0 0 .05s0 0 0 0v-.11.08s-.06 0 0-.09-.08 0-.08 0a.21.21 0 0 1 -.08-.12 1.31 1.31 0 0 1 0-.15s0 0 0 0zm-1.28-5.65a0 0 0 0 0 0 0s0 .04 0 0zm.29.32s0 0-.07-.06.02.04.07.06zm.46.36s0 0 0 0a0 0 0 0 0 0 0z"/><path d="m90.44 12a.1.1 0 0 0 0 .1c-.07 0-.11 0-.12.05v.06a.6.6 0 0 1 -.06.19.29.29 0 0 1 -.09.13s0 0-.06 0a.6.6 0 0 1 0-.26s0 0 0 0 0 .08 0 .1a.57.57 0 0 1 0 .29s0 .05-.08 0a.26.26 0 0 1 -.06-.15.45.45 0 0 1 0-.24s0 0 0 0a.89.89 0 0 1 -.17.19c-.09.07-.12.12-.1.14s0 0 0 0v.2s0 0 0 0l-.06-.08s0 0 0 .07a.09.09 0 0 1 0-.07s0 0-.08 0 0 .06 0 .12a.37.37 0 0 0 0-.24s0-.09.1-.16a.07.07 0 0 1 0-.08s0-.05 0-.08a.33.33 0 0 1 0-.17 1 1 0 0 0 0-.18.89.89 0 0 1 .1-.35 1.55 1.55 0 0 1 .06-.31 1.16 1.16 0 0 1 .1-.28s0-.06 0-.08 0 0 0-.06 0 0 0 0a.15.15 0 0 0 .08-.15 0 0 0 0 0 0 0 .09.09 0 0 0 0-.06c.1 0 .11-.09 0-.16s.1-.06.09-.1a.09.09 0 0 1 0-.09c0-.07 0-.15.09-.24a.74.74 0 0 0 -.18-.47s0 0 0-.05a.08.08 0 0 1 0-.07.25.25 0 0 1 .06-.24c.06-.08.07-.14 0-.2a.27.27 0 0 1 .1-.06c-.07 0-.08 0 0-.06s.05-.05.05-.08v-.07a.06.06 0 0 1 0-.06.46.46 0 0 0 .07-.07.08.08 0 0 0 0-.08s0 0 0 0a.13.13 0 0 1 0-.15s0-.08 0-.11a.2.2 0 0 1 0-.08s0 0 0-.06h.07a.11.11 0 0 0 0-.08.17.17 0 0 1 0-.1.26.26 0 0 1 .08-.14s0 0 0 0a.53.53 0 0 0 .1-.24.77.77 0 0 1 .1-.28s0-.09 0-.13a.18.18 0 0 0 .07-.15s0 0 0-.05l.09-.19.07-.16s0 0 0 0a.36.36 0 0 0 .16-.13.24.24 0 0 1 .09-.11.32.32 0 0 0 .14 0 .26.26 0 0 1 .1-.07 1.43 1.43 0 0 1 .59-.31.52.52 0 0 0 .28-.09l.56-.06a4.28 4.28 0 0 1 .56 0 .06.06 0 0 1 .06 0h.13a.17.17 0 0 1 .1.06.1.1 0 0 0 .09 0 .3.3 0 0 1 .08.22.83.83 0 0 1 -.06.21l-.14.36a1.13 1.13 0 0 1 -.22.36 1.46 1.46 0 0 0 0 .2.48.48 0 0 1 -.15.19s0 0 0 0a1 1 0 0 0 -.19.39 1 1 0 0 1 -.23.39 2.06 2.06 0 0 0 -.17.39c-.06.15-.11.31-.17.47l-.18.47a1.37 1.37 0 0 1 -.2.38 0 0 0 0 1 0 .05s0 0 0 .06c-.15.24-.29.47-.44.69a2.1 2.1 0 0 0 -.28.7.29.29 0 0 0 -.1.08s-.06.06-.14.08a.21.21 0 0 0 0-.06q-.21 0-.21.15a.78.78 0 0 1 0 .22s0 0 0 0 .06.06 0 .09a.12.12 0 0 1 -.06.06h-.07s0 0 0 .05 0 0-.06 0 0-.06-.07-.05 0 0 0 0a.19.19 0 0 1 -.08-.07.1.1 0 0 0 -.14.01zm-.26.12a.09.09 0 0 0 -.06 0s0 0 0 0 .06.01.06-.02zm.28-.2s0 0 0 0a0 0 0 0 1 0 0s.04.02 0-.02zm.09 0s0 0 0 0l-.07.06h.1zm1.75-8.4a.05.05 0 0 0 0 0s0 0 0 0h.11a.12.12 0 0 0 .1 0h.09a.18.18 0 0 1 0-.07.31.31 0 0 0 .13 0 .48.48 0 0 1 .19-.12.46.46 0 0 1 .26 0 1.62 1.62 0 0 0 .33 0 .31.31 0 0 0 .15 0h.19a.27.27 0 0 0 .15.09.27.27 0 0 1 .17.1.19.19 0 0 0 0 .08.41.41 0 0 1 .21.2.48.48 0 0 0 .2.2v.32s-.06.22-.23.3a.09.09 0 0 0 -.06.07.55.55 0 0 0 -.31.08c-.26 0-.37.06-.32.19a.43.43 0 0 0 -.12.11s0 .09-.07.14a.35.35 0 0 0 -.14.06.58.58 0 0 1 -.19.07s0 0 0 0a2.91 2.91 0 0 1 -.77.07 2 2 0 0 1 -.62-.11s0 0-.06 0a.06.06 0 0 1 -.07 0 .17.17 0 0 0 0-.11.13.13 0 0 1 0-.1.19.19 0 0 1 0-.08.19.19 0 0 0 0-.08.38.38 0 0 1 0-.23.77.77 0 0 1 .11-.24.16.16 0 0 0 0-.06.22.22 0 0 1 0-.08 1.89 1.89 0 0 1 .2-.27l.22-.26h.08z"/><path d="m100.62 8.34c0 .07.1.07.18 0a.46.46 0 0 1 .22-.08.05.05 0 0 1 0 0s0 0 0 0a0 0 0 0 1 .06 0 0 0 0 0 1 0 .06s0 0 0 0a.29.29 0 0 1 0 .13h.13a.78.78 0 0 0 0 .16.65.65 0 0 0 -.12.11.34.34 0 0 1 -.12.12s0 0 0 0v.16s-.08 0-.09 0a.18.18 0 0 1 0 .09h.07l.06-.06s0 0 0 0h-.06-.06s0 0 0 0-.05 0-.05 0a.15.15 0 0 1 0 .07.28.28 0 0 0 -.2.07.24.24 0 0 1 -.19.05.1.1 0 0 1 -.1.06.12.12 0 0 0 -.11.08.18.18 0 0 1 -.13.1.31.31 0 0 0 -.13.06.24.24 0 0 1 -.1.15.08.08 0 0 1 -.11 0 .22.22 0 0 1 -.09.1l-.08.09s0 0 .08 0 .07 0 .09 0a.5.5 0 0 1 -.19.13l-.22.08s0 .06 0 0 0 0 0 0h-.07s0 0 0 .09-.15 0-.14.13 0 0 0 0a2.71 2.71 0 0 1 -.49.31 3.6 3.6 0 0 0 -.5.29.39.39 0 0 0 -.32.17 3.76 3.76 0 0 0 -.46.2l-.42.25s0 0 0 0a1.2 1.2 0 0 1 -.4.22 1.54 1.54 0 0 0 -.39.23 1.12 1.12 0 0 0 -.38.09 1.82 1.82 0 0 1 -.35.12h-.21a1.29 1.29 0 0 1 -.36 0 2.9 2.9 0 0 1 -.39 0h-.08l-.4.05s0 0 0 0a.13.13 0 0 1 -.07-.06.24.24 0 0 0 -.09-.08l-.16-.1-.16-.09s0 0 0 0a.05.05 0 0 1 0 0s0 0 0 0a2.36 2.36 0 0 1 -.22-.38 1.42 1.42 0 0 0 -.22-.34.74.74 0 0 0 -.16-.37s0 0 0 0a1.09 1.09 0 0 1 -.16-.63 2.05 2.05 0 0 1 .14-.72.64.64 0 0 0 .08-.14.2.2 0 0 1 .11-.11 2.68 2.68 0 0 1 .45-.76l.53-.6a.52.52 0 0 1 .1-.11l.12-.13.15-.15.16-.16.02-.29a1.6 1.6 0 0 0 .26-.26.84.84 0 0 1 .27-.22s0 0 0 0a.67.67 0 0 0 .2-.12.69.69 0 0 0 .17-.2.17.17 0 0 0 .18-.08.47.47 0 0 1 .14-.14.31.31 0 0 1 .16-.09.17.17 0 0 0 .1-.07l.12-.09q.24-.17.48-.3c.16-.09.33-.18.51-.26l.34-.17a1.38 1.38 0 0 1 .45-.2s.05 0 .05 0a.06.06 0 0 0 .07 0h.07l.27-.09.26-.07h.28a.48.48 0 0 1 .29.09s0 0 0 0a.56.56 0 0 0 .15.1.27.27 0 0 1 .06.17l.09.06c0 .1.08.15.13.16s0 0 0 0a.21.21 0 0 1 .08.11v.13a.32.32 0 0 0 .08.13.32.32 0 0 1 .08.13.17.17 0 0 1 0 .1.12.12 0 0 0 0 .09.31.31 0 0 1 0 .11.13.13 0 0 1 .07.09.41.41 0 0 1 0 .11.5.5 0 0 0 0 .12.2.2 0 0 0 0 .13.14.14 0 0 1 0 .06s0 0 0 .07a1.06 1.06 0 0 0 -.22.29 2.59 2.59 0 0 1 -.21.3s0 0 0 0l-.12.15-.14.13h-.07s0 0-.07.08l-.08.08-.12.18-.19.07a.31.31 0 0 0 -.15.12l-.49.3a3.29 3.29 0 0 1 -.52.29.43.43 0 0 1 -.14 0 .19.19 0 0 0 -.11.07.22.22 0 0 0 -.15.06.26.26 0 0 1 -.16.07.06.06 0 0 0 -.06.05 1.15 1.15 0 0 1 -.33.17l-.34.11s-.06 0-.06 0a.23.23 0 0 0 -.12.05.16.16 0 0 1 -.12 0l-.06.06h-.24a.33.33 0 0 1 -.24 0s0 0 0 0h-.16a.11.11 0 0 1 -.11-.08h-.07a.1.1 0 0 1 -.08 0c-.08.09-.17.18-.25.28a1.38 1.38 0 0 0 -.23.33.1.1 0 0 1 -.06.08.21.21 0 0 0 0 .14.21.21 0 0 0 -.11.18.34.34 0 0 1 -.09.2 1.67 1.67 0 0 0 .37 0 1.8 1.8 0 0 1 .38-.07s0 0 0 0a.05.05 0 0 1 0 0 .33.33 0 0 0 .18 0 .25.25 0 0 1 .16 0s0 0 0-.07a.35.35 0 0 0 .19 0l.19-.09a.69.69 0 0 0 .34-.09 1.21 1.21 0 0 1 .35-.12.24.24 0 0 1 .21-.1.19.19 0 0 0 .19-.11l.24-.06a.54.54 0 0 0 .22-.1 0 0 0 0 1 0 0 .53.53 0 0 1 .22-.08.28.28 0 0 0 .21-.12.7.7 0 0 0 .39-.35 0 0 0 0 0 0 0 2.75 2.75 0 0 0 .45-.17l.5-.24a0 0 0 0 0 .06 0 .08.08 0 0 1 .08 0 .67.67 0 0 1 .26-.09 1.8 1.8 0 0 0 .27-.07l.19-.08a.5.5 0 0 1 .21 0 .38.38 0 0 0 .24-.08.66.66 0 0 1 .24-.11h.26a0 0 0 0 1 0 0s0 0 0 0a.13.13 0 0 0 -.16 0 .14.14 0 0 1 -.16 0s-.02.15-.02.18zm-4.23-.64c0-.06.08-.07.13 0s.1 0 .13 0 0 .07 0 .07a.05.05 0 0 1 0 0h.08a.13.13 0 0 0 .27-.23c0-.08.08-.11.13-.1a.19.19 0 0 1 .14-.08s.08 0 .12-.1a.69.69 0 0 0 .24-.06 1.69 1.69 0 0 0 .37-.26l.13-.24c.07-.11.11-.18.15-.2a.08.08 0 0 0 -.09 0h-.11-.12s-.06 0-.07 0l-.14.12a.44.44 0 0 1 -.15.09.27.27 0 0 0 -.18.12.14.14 0 0 1 -.17.07.44.44 0 0 1 -.08.11.08.08 0 0 1 -.11 0l-.06.17a.13.13 0 0 1 -.1 0s0 0 0 0-.05 0-.07 0a.07.07 0 0 1 0 0 .9.9 0 0 1 -.2.14.52.52 0 0 0 -.18.18h.08z"/><path d="m105.4 3.52s0 0 0 0a0 0 0 0 1 .06 0 .06.06 0 0 0 .05 0s0 0 0 0 0 0 .07 0 0-.05.06 0 0 .08 0 .1a.18.18 0 0 0 .13-.11.11.11 0 0 1 .11-.08v.06h.06.09a.06.06 0 0 0 .09 0 .08.08 0 0 1 .07 0s0 0 0 .1a0 0 0 0 0 .06 0 .44.44 0 0 0 .14.13.79.79 0 0 1 .18.14s0 0 0 0 0 .13.06.14a1.15 1.15 0 0 0 .12.29.55.55 0 0 1 .06.26.51.51 0 0 0 0 .13v.09c0 .13-.06.25-.08.35a.65.65 0 0 0 0 .31 1.24 1.24 0 0 1 0 .43 0 0 0 0 1 0 0 1.22 1.22 0 0 1 -.07.38c0 .12-.1.23-.16.35a3.71 3.71 0 0 0 -.12.41 1.49 1.49 0 0 1 -.13.39s0 0 0 0a.11.11 0 0 0 0 .1.11.11 0 0 1 0 .1.09.09 0 0 1 -.06 0 .26.26 0 0 0 -.19.15.32.32 0 0 1 -.2.14s0 0 0 0a.05.05 0 0 1 -.06-.06s0 0 0 0a.12.12 0 0 1 -.14 0 .16.16 0 0 0 -.13-.07.28.28 0 0 0 -.18-.09.27.27 0 0 1 -.18-.12.35.35 0 0 0 -.07-.12l-.07-.08c0-.09 0-.14-.06-.16a.14.14 0 0 1 0-.13.23.23 0 0 1 -.11-.11v-.13a.18.18 0 0 0 0-.13.23.23 0 0 0 0-.11.33.33 0 0 0 0-.19l-.22.07-.23.07c-.16.12-.32.22-.48.32a1.64 1.64 0 0 0 -.42.37c-.1.12-.2.23-.29.35a2.91 2.91 0 0 1 -.3.31s0 0 0 .06a1.53 1.53 0 0 0 .82.26h.16.16.22.33a1.24 1.24 0 0 1 .33 0l.37.05.39.06a0 0 0 0 0 0 0h.07.06a.36.36 0 0 0 .18 0h.17c.19 0 .3 0 .36.09h.22.22.08a.09.09 0 0 1 .07 0 .16.16 0 0 1 .08.06.15.15 0 0 0 .09.06l.22.11.17.12a.19.19 0 0 0 .09.12.11.11 0 0 1 .08.08s0 0 0 0a.59.59 0 0 0 0 .39v.06.07a.06.06 0 0 0 0 .06.64.64 0 0 1 -.06.22c0 .07 0 .14-.07.21h-.08-.09a.63.63 0 0 1 -.28.21.87.87 0 0 0 -.28.19l-.26.1-.86.3a7.55 7.55 0 0 1 -.88.28s0 0 0 0a1.91 1.91 0 0 1 -.47.17 3.4 3.4 0 0 0 -.49.15s0 0 0 0a7.69 7.69 0 0 0 -1 .37 1.81 1.81 0 0 0 -.31.13.79.79 0 0 1 -.32.06s0 0 0 0h-.35l-.33.07-.28.09h-.1l-.09.05a.74.74 0 0 1 -.25 0 .31.31 0 0 0 -.22.07 1.37 1.37 0 0 0 -.35 0 1.28 1.28 0 0 1 -.4 0 .14.14 0 0 1 0-.11.05.05 0 0 0 0-.05.08.08 0 0 0 .08 0 .07.07 0 0 0 .07 0s0 0 0 0a.13.13 0 0 1 0-.06h-.11a.13.13 0 0 0 -.1 0h-.06a.07.07 0 0 1 -.08 0 .1.1 0 0 1 0-.07l.06-.08s0 0 0 0a.08.08 0 0 1 0 .05s-.09 0-.1 0 0 0 0 0a.1.1 0 0 1 0-.12.08.08 0 0 0 0-.12h-.06-.06a.34.34 0 0 1 0-.14.12.12 0 0 0 0-.13l.07-.07a.07.07 0 0 1 .06 0q0-.12.06-.15a.08.08 0 0 0 0-.11l.12-.06h.12a1.62 1.62 0 0 1 .45-.18 2.07 2.07 0 0 0 .43-.16s0 0 0 0a2.42 2.42 0 0 1 .58-.29 2 2 0 0 0 .56-.29s0 0 0 0a1.69 1.69 0 0 1 .31-.13.55.55 0 0 0 .27-.17h.07.07a2.9 2.9 0 0 1 .46-.26 4.23 4.23 0 0 0 .47-.25.08.08 0 0 0 -.07 0h-.06a.24.24 0 0 0 -.15 0h-.17-.17l-.17-.05h-.15a.26.26 0 0 1 -.15 0 .41.41 0 0 0 -.19-.08.74.74 0 0 1 -.19 0 .55.55 0 0 0 -.3-.25.44.44 0 0 1 -.26-.26.41.41 0 0 1 -.3-.27 1.37 1.37 0 0 0 -.17-.37s0 0 0 0a0 0 0 0 1 0 .06.61.61 0 0 1 0-.34c0-.14 0-.25 0-.34a.4.4 0 0 0 0-.15.18.18 0 0 1 .06-.13.41.41 0 0 0 -.11-.1.12.12 0 0 1 0-.11l.09-.08a.63.63 0 0 0 .11-.29.49.49 0 0 0 .18-.2 1.64 1.64 0 0 1 .14-.22 0 0 0 0 0 0 0l.33-.27.33-.29a.41.41 0 0 0 .2-.13 1.74 1.74 0 0 0 .32-.28 1.85 1.85 0 0 1 .32-.25.09.09 0 0 1 .06 0s0 0 0-.07a.69.69 0 0 0 .3-.14.72.72 0 0 1 .34-.16s0 0 .06-.08a1.21 1.21 0 0 0 .44-.15.49.49 0 0 1 .44 0 .28.28 0 0 0 0-.12s0-.08 0-.14 0 0 .07 0a.8.8 0 0 1 .15-.17.55.55 0 0 0 .14-.21.08.08 0 0 0 .08-.05.16.16 0 0 1 .06-.08zm-5.6 8.27s0 0 0 0zm1.21-1a.05.05 0 0 0 -.06.06.05.05 0 0 0 .05-.03z"/></svg>